<svg width="40" height="40" viewBox="0 0 40 40" fill="none" xmlns="http://www.w3.org/2000/svg">
<mask id="mask0_422_2266" style="mask-type:alpha" maskUnits="userSpaceOnUse" x="0" y="0" width="40" height="40">
<rect width="40" height="40" fill="#D9D9D9"/>
</mask>
<g mask="url(#mask0_422_2266)">
<path d="M19.9999 28.3333C20.4721 28.3333 20.868 28.1736 21.1874 27.8542C21.5069 27.5347 21.6666 27.1389 21.6666 26.6667V20C21.6666 19.5278 21.5069 19.132 21.1874 18.8125C20.868 18.4931 20.4721 18.3333 19.9999 18.3333C19.5277 18.3333 19.1319 18.4931 18.8124 18.8125C18.493 19.132 18.3333 19.5278 18.3333 20V26.6667C18.3333 27.1389 18.493 27.5347 18.8124 27.8542C19.1319 28.1736 19.5277 28.3333 19.9999 28.3333ZM19.9999 15C20.4721 15 20.868 14.8403 21.1874 14.5208C21.5069 14.2014 21.6666 13.8056 21.6666 13.3333C21.6666 12.8611 21.5069 12.4653 21.1874 12.1458C20.868 11.8264 20.4721 11.6667 19.9999 11.6667C19.5277 11.6667 19.1319 11.8264 18.8124 12.1458C18.493 12.4653 18.3333 12.8611 18.3333 13.3333C18.3333 13.8056 18.493 14.2014 18.8124 14.5208C19.1319 14.8403 19.5277 15 19.9999 15ZM19.9999 36.6667C17.6944 36.6667 15.5277 36.2292 13.4999 35.3542C11.4721 34.4792 9.70825 33.2917 8.20825 31.7917C6.70825 30.2917 5.52075 28.5278 4.64575 26.5C3.77075 24.4722 3.33325 22.3056 3.33325 20C3.33325 17.6945 3.77075 15.5278 4.64575 13.5C5.52075 11.4722 6.70825 9.70834 8.20825 8.20834C9.70825 6.70834 11.4721 5.52084 13.4999 4.64584C15.5277 3.77084 17.6944 3.33334 19.9999 3.33334C22.3055 3.33334 24.4721 3.77084 26.4999 4.64584C28.5277 5.52084 30.2916 6.70834 31.7916 8.20834C33.2916 9.70834 34.4791 11.4722 35.3541 13.5C36.2291 15.5278 36.6666 17.6945 36.6666 20C36.6666 22.3056 36.2291 24.4722 35.3541 26.5C34.4791 28.5278 33.2916 30.2917 31.7916 31.7917C30.2916 33.2917 28.5277 34.4792 26.4999 35.3542C24.4721 36.2292 22.3055 36.6667 19.9999 36.6667ZM19.9999 33.3333C23.7221 33.3333 26.8749 32.0417 29.4583 29.4583C32.0416 26.875 33.3333 23.7222 33.3333 20C33.3333 16.2778 32.0416 13.125 29.4583 10.5417C26.8749 7.95834 23.7221 6.66668 19.9999 6.66668C16.2777 6.66668 13.1249 7.95834 10.5416 10.5417C7.95825 13.125 6.66659 16.2778 6.66659 20C6.66659 23.7222 7.95825 26.875 10.5416 29.4583C13.1249 32.0417 16.2777 33.3333 19.9999 33.3333Z" fill="white"/>
</g>
</svg>
